<svg xmlns="http://www.w3.org/2000/svg">
    <symbol id="add" viewBox="0 0 24 24">
        <path fill="currentColor" d="M19 13H13V19H11V13H5V11H11V5H13V11H19V13Z"/>
    </symbol>

    <symbol id="checkbox" viewBox="0 0 24 24">
        <path fill="currentColor" d="M19 3H5C3.89 3 3 3.9 3 5V19C3 20.1 3.89 21 5 21H19C20.11 21 21 20.1 21 19V5C21 3.9 20.11 3 19 3ZM10 17L5 12L6.41 10.59L10 14.17L17.59 6.58L19 8L10 17Z"/>
    </symbol>

    <symbol id="close" viewBox="0 0 24 24">
        <path fill="currentColor" d="M19 6.41L17.59 5L12 10.59L6.41 5L5 6.41L10.59 12L5 17.59L6.41 19L12 13.41L17.59 19L19 17.59L13.41 12L19 6.41Z"/>
    </symbol>

    <symbol id="copy" viewBox="0 0 24 24">
        <path fill="currentColor" d="M16 1H4C2.9 1 2 1.9 2 3V17H4V3H16V1ZM19 5H8C6.9 5 6 5.9 6 7V21C6 22.1 6.9 23 8 23H19C20.1 23 21 22.1 21 21V7C21 5.9 20.1 5 19 5ZM19 21H8V7H19V21Z"/>
    </symbol>

    <symbol id="toggle-on" viewBox="0 0 24 24">
        <path fill="currentColor" d="M17 7H7C4.24 7 2 9.24 2 12C2 14.76 4.24 17 7 17H17C19.76 17 22 14.76 22 12C22 9.24 19.76 7 17 7ZM17 15C15.34 15 14 13.66 14 12C14 10.34 15.34 9 17 9C18.66 9 20 10.34 20 12C20 13.66 18.66 15 17 15Z"/>
    </symbol>

    <symbol id="toggle-off" viewBox="0 0 24 24">
        <path fill="currentColor" d="M17 7H7C4.24 7 2 9.24 2 12C2 14.76 4.24 17 7 17H17C19.76 17 22 14.76 22 12C22 9.24 19.76 7 17 7ZM7 15C5.34 15 4 13.66 4 12C4 10.34 5.34 9 7 9C8.66 9 10 10.34 10 12C10 13.66 8.66 15 7 15Z"/>
    </symbol>
</svg>
