<svg xmlns="http://www.w3.org/2000/svg">
    <symbol id="add" viewBox="0 0 24 24">
        <path fill="currentColor" d="M19 13H13V19H11V13H5V11H11V5H13V11H19V13Z"/>
    </symbol>

    <symbol id="checkbox" viewBox="0 0 24 24">
        <path fill="currentColor" d="M19 3H5C3.89 3 3 3.9 3 5V19C3 20.1 3.89 21 5 21H19C20.11 21 21 20.1 21 19V5C21 3.9 20.11 3 19 3ZM10 17L5 12L6.41 10.59L10 14.17L17.59 6.58L19 8L10 17Z"/>
    </symbol>

    <symbol id="close" viewBox="0 0 24 24">
        <path fill="currentColor" d="M19 6.41L17.59 5L12 10.59L6.41 5L5 6.41L10.59 12L5 17.59L6.41 19L12 13.41L17.59 19L19 17.59L13.41 12L19 6.41Z"/>
    </symbol>

    <symbol id="copy" viewBox="0 0 24 24">
        <path fill="currentColor" d="M16 1H4C2.9 1 2 1.9 2 3V17H4V3H16V1ZM19 5H8C6.9 5 6 5.9 6 7V21C6 22.1 6.9 23 8 23H19C20.1 23 21 22.1 21 21V7C21 5.9 20.1 5 19 5ZM19 21H8V7H19V21Z"/>
    </symbol>

    <symbol id="toggle-on" viewBox="0 0 24 24">
        <path fill="currentColor" d="M17 7H7C4.24 7 2 9.24 2 12C2 14.76 4.24 17 7 17H17C19.76 17 22 14.76 22 12C22 9.24 19.76 7 17 7ZM17 15C15.34 15 14 13.66 14 12C14 10.34 15.34 9 17 9C18.66 9 20 10.34 20 12C20 13.66 18.66 15 17 15Z"/>
    </symbol>

    <symbol id="toggle-off" viewBox="0 0 24 24">
        <path fill="currentColor" d="M17 7H7C4.24 7 2 9.24 2 12C2 14.76 4.24 17 7 17H17C19.76 17 22 14.76 22 12C22 9.24 19.76 7 17 7ZM7 15C5.34 15 4 13.66 4 12C4 10.34 5.34 9 7 9C8.66 9 10 10.34 10 12C10 13.66 8.66 15 7 15Z"/>
    </symbol>

    <symbol id="message" viewBox="0 0 24 24">
        <path fill="currentColor" d="M20 2H4C2.9 2 2.01 2.9 2.01 4L2 22L6 18H20C21.1 18 22 17.1 22 16V4C22 2.9 21.1 2 20 2ZM13 14H11V12H13V14ZM13 10H11V6H13V10Z"/>
    </symbol>

    <symbol id="monetization" viewBox="0 0 24 24">
        <path fill="currentColor" d="M12 2C6.48 2 2 6.48 2 12C2 17.52 6.48 22 12 22C17.52 22 22 17.52 22 12C22 6.48 17.52 2 12 2ZM13.41 18.09V20H10.74V18.07C9.03 17.71 7.58 16.61 7.47 14.67H9.43C9.53 15.72 10.25 16.54 12.08 16.54C14.04 16.54 14.48 15.56 14.48 14.95C14.48 14.12 14.04 13.34 11.81 12.81C9.33 12.21 7.63 11.19 7.63 9.14C7.63 7.42 9.02 6.3 10.74 5.93V4H13.41V5.95C15.27 6.4 16.2 7.81 16.26 9.34H14.3C14.25 8.23 13.66 7.47 12.08 7.47C10.58 7.47 9.68 8.15 9.68 9.11C9.68 9.95 10.33 10.5 12.35 11.02C14.37 11.54 16.53 12.41 16.53 14.93C16.52 16.76 15.15 17.76 13.41 18.09Z"/>
    </symbol>

    <symbol id="warning" viewBox="0 0 24 24">
        <path fill="currentColor" d="M1 21H23L12 2L1 21ZM13 18H11V16H13V18ZM13 14H11V10H13V14Z"/>
    </symbol>
</svg>
