<svg xmlns="http://www.w3.org/2000/svg">
    <symbol id="add" viewBox="0 0 24 24">
        <path fill="currentColor" d="M19 13H13V19H11V13H5V11H11V5H13V11H19V13Z"/>
    </symbol>

    <symbol id="checkbox" viewBox="0 0 24 24">
        <path fill="currentColor" d="M19 3H5C3.89 3 3 3.9 3 5V19C3 20.1 3.89 21 5 21H19C20.11 21 21 20.1 21 19V5C21 3.9 20.11 3 19 3ZM10 17L5 12L6.41 10.59L10 14.17L17.59 6.58L19 8L10 17Z"/>
    </symbol>

    <symbol id="close" viewBox="0 0 24 24">
        <path fill="currentColor" d="M19 6.41L17.59 5L12 10.59L6.41 5L5 6.41L10.59 12L5 17.59L6.41 19L12 13.41L17.59 19L19 17.59L13.41 12L19 6.41Z"/>
    </symbol>

    <symbol id="copy" viewBox="0 0 24 24">
        <path fill="currentColor" d="M16 1H4C2.9 1 2 1.9 2 3V17H4V3H16V1ZM19 5H8C6.9 5 6 5.9 6 7V21C6 22.1 6.9 23 8 23H19C20.1 23 21 22.1 21 21V7C21 5.9 20.1 5 19 5ZM19 21H8V7H19V21Z"/>
    </symbol>

    <symbol id="edit" viewBox="0 0 24 24">
        <path fill="currentColor" d="M3 17.25V21H6.75L17.81 9.94L14.06 6.19L3 17.25ZM20.71 7.04C21.1 6.65 21.1 6.02 20.71 5.63L18.37 3.29C17.98 2.9 17.35 2.9 16.96 3.29L15.13 5.12L18.88 8.87L20.71 7.04Z" />
    </symbol>

    <symbol id="toggle-on" viewBox="0 0 24 24">
        <path fill="currentColor" d="M17 7H7C4.24 7 2 9.24 2 12C2 14.76 4.24 17 7 17H17C19.76 17 22 14.76 22 12C22 9.24 19.76 7 17 7ZM17 15C15.34 15 14 13.66 14 12C14 10.34 15.34 9 17 9C18.66 9 20 10.34 20 12C20 13.66 18.66 15 17 15Z"/>
    </symbol>

    <symbol id="toggle-off" viewBox="0 0 24 24">
        <path fill="currentColor" d="M17 7H7C4.24 7 2 9.24 2 12C2 14.76 4.24 17 7 17H17C19.76 17 22 14.76 22 12C22 9.24 19.76 7 17 7ZM7 15C5.34 15 4 13.66 4 12C4 10.34 5.34 9 7 9C8.66 9 10 10.34 10 12C10 13.66 8.66 15 7 15Z"/>
    </symbol>

    <symbol id="message" viewBox="0 0 24 24">
        <path fill="currentColor" d="M20 2H4C2.9 2 2.01 2.9 2.01 4L2 22L6 18H20C21.1 18 22 17.1 22 16V4C22 2.9 21.1 2 20 2ZM13 14H11V12H13V14ZM13 10H11V6H13V10Z"/>
    </symbol>

    <symbol id="monetization" viewBox="0 0 24 24">
        <path fill="currentColor" d="M12 2C6.48 2 2 6.48 2 12C2 17.52 6.48 22 12 22C17.52 22 22 17.52 22 12C22 6.48 17.52 2 12 2ZM13.41 18.09V20H10.74V18.07C9.03 17.71 7.58 16.61 7.47 14.67H9.43C9.53 15.72 10.25 16.54 12.08 16.54C14.04 16.54 14.48 15.56 14.48 14.95C14.48 14.12 14.04 13.34 11.81 12.81C9.33 12.21 7.63 11.19 7.63 9.14C7.63 7.42 9.02 6.3 10.74 5.93V4H13.41V5.95C15.27 6.4 16.2 7.81 16.26 9.34H14.3C14.25 8.23 13.66 7.47 12.08 7.47C10.58 7.47 9.68 8.15 9.68 9.11C9.68 9.95 10.33 10.5 12.35 11.02C14.37 11.54 16.53 12.41 16.53 14.93C16.52 16.76 15.15 17.76 13.41 18.09Z"/>
    </symbol>

    <symbol id="warning" viewBox="0 0 24 24">
        <path fill="currentColor" d="M1 21H23L12 2L1 21ZM13 18H11V16H13V18ZM13 14H11V10H13V14Z"/>
    </symbol>

    <symbol id="delete" viewBox="0 0 24 24">
        <path fill="currentColor" d="M6 19C6 20.1 6.9 21 8 21H16C17.1 21 18 20.1 18 19V7H6V19ZM19 4H15.5L14.5 3H9.5L8.5 4H5V6H19V4Z"/>
    </symbol>

    <symbol id="date" viewBox="0 0 24 24">
        <path d="M17 12H12V17H17V12ZM16 1V3H8V1H6V3H5C3.89 3 3.01 3.9 3.01 5L3 19C3 20.1 3.89 21 5 21H19C20.1 21 21 20.1 21 19V5C21 3.9 20.1 3 19 3H18V1H16ZM19 19H5V8H19V19Z"/>
    </symbol>

    <symbol id="settings" viewBox="0 0 24 24">
        <path d="M19.14 12.94C19.18 12.64 19.2 12.33 19.2 12C19.2 11.68 19.18 11.36 19.13 11.06L21.16 9.47999C21.34 9.33999 21.39 9.06999 21.28 8.86999L19.36 5.54999C19.24 5.32999 18.99 5.25999 18.77 5.32999L16.38 6.28999C15.88 5.90999 15.35 5.58999 14.76 5.34999L14.4 2.80999C14.36 2.56999 14.16 2.39999 13.92 2.39999H10.08C9.83999 2.39999 9.64999 2.56999 9.60999 2.80999L9.24999 5.34999C8.65999 5.58999 8.11999 5.91999 7.62999 6.28999L5.23999 5.32999C5.01999 5.24999 4.76999 5.32999 4.64999 5.54999L2.73999 8.86999C2.61999 9.07999 2.65999 9.33999 2.85999 9.47999L4.88999 11.06C4.83999 11.36 4.79999 11.69 4.79999 12C4.79999 12.31 4.81999 12.64 4.86999 12.94L2.83999 14.52C2.65999 14.66 2.60999 14.93 2.71999 15.13L4.63999 18.45C4.75999 18.67 5.00999 18.74 5.22999 18.67L7.61999 17.71C8.11999 18.09 8.64999 18.41 9.23999 18.65L9.59999 21.19C9.64999 21.43 9.83999 21.6 10.08 21.6H13.92C14.16 21.6 14.36 21.43 14.39 21.19L14.75 18.65C15.34 18.41 15.88 18.09 16.37 17.71L18.76 18.67C18.98 18.75 19.23 18.67 19.35 18.45L21.27 15.13C21.39 14.91 21.34 14.66 21.15 14.52L19.14 12.94ZM12 15.6C10.02 15.6 8.39999 13.98 8.39999 12C8.39999 10.02 10.02 8.39999 12 8.39999C13.98 8.39999 15.6 10.02 15.6 12C15.6 13.98 13.98 15.6 12 15.6Z" fill="black"/>
    </symbol>
</svg>
